<svg xmlns="http://www.w3.org/2000/svg" viewBox="0 0 100 100" preserveAspectRatio="xMidYMid" width="94" height="94" style="shape-rendering: auto; display: block; background: rgb(255, 255, 255);" xmlns:xlink="http://www.w3.org/1999/xlink"><g><g transform="rotate(0 50 50)">
  <rect fill="#000000" height="10" width="14" ry="0" rx="0" y="28" x="43">
    <animate repeatCount="indefinite" begin="-0.7639419404125286s" dur="0.8403361344537815s" keyTimes="0;1" values="1;0" attributeName="opacity"></animate>
  </rect>
</g><g transform="rotate(32.72727272727273 50 50)">
  <rect fill="#000000" height="10" width="14" ry="0" rx="0" y="28" x="43">
    <animate repeatCount="indefinite" begin="-0.6875477463712758s" dur="0.8403361344537815s" keyTimes="0;1" values="1;0" attributeName="opacity"></animate>
  </rect>
</g><g transform="rotate(65.45454545454545 50 50)">
  <rect fill="#000000" height="10" width="14" ry="0" rx="0" y="28" x="43">
    <animate repeatCount="indefinite" begin="-0.6111535523300229s" dur="0.8403361344537815s" keyTimes="0;1" values="1;0" attributeName="opacity"></animate>
  </rect>
</g><g transform="rotate(98.18181818181819 50 50)">
  <rect fill="#000000" height="10" width="14" ry="0" rx="0" y="28" x="43">
    <animate repeatCount="indefinite" begin="-0.5347593582887701s" dur="0.8403361344537815s" keyTimes="0;1" values="1;0" attributeName="opacity"></animate>
  </rect>
</g><g transform="rotate(130.9090909090909 50 50)">
  <rect fill="#000000" height="10" width="14" ry="0" rx="0" y="28" x="43">
    <animate repeatCount="indefinite" begin="-0.4583651642475172s" dur="0.8403361344537815s" keyTimes="0;1" values="1;0" attributeName="opacity"></animate>
  </rect>
</g><g transform="rotate(163.63636363636363 50 50)">
  <rect fill="#000000" height="10" width="14" ry="0" rx="0" y="28" x="43">
    <animate repeatCount="indefinite" begin="-0.3819709702062643s" dur="0.8403361344537815s" keyTimes="0;1" values="1;0" attributeName="opacity"></animate>
  </rect>
</g><g transform="rotate(196.36363636363637 50 50)">
  <rect fill="#000000" height="10" width="14" ry="0" rx="0" y="28" x="43">
    <animate repeatCount="indefinite" begin="-0.30557677616501144s" dur="0.8403361344537815s" keyTimes="0;1" values="1;0" attributeName="opacity"></animate>
  </rect>
</g><g transform="rotate(229.0909090909091 50 50)">
  <rect fill="#000000" height="10" width="14" ry="0" rx="0" y="28" x="43">
    <animate repeatCount="indefinite" begin="-0.2291825821237586s" dur="0.8403361344537815s" keyTimes="0;1" values="1;0" attributeName="opacity"></animate>
  </rect>
</g><g transform="rotate(261.8181818181818 50 50)">
  <rect fill="#000000" height="10" width="14" ry="0" rx="0" y="28" x="43">
    <animate repeatCount="indefinite" begin="-0.15278838808250572s" dur="0.8403361344537815s" keyTimes="0;1" values="1;0" attributeName="opacity"></animate>
  </rect>
</g><g transform="rotate(294.54545454545456 50 50)">
  <rect fill="#000000" height="10" width="14" ry="0" rx="0" y="28" x="43">
    <animate repeatCount="indefinite" begin="-0.07639419404125286s" dur="0.8403361344537815s" keyTimes="0;1" values="1;0" attributeName="opacity"></animate>
  </rect>
</g><g transform="rotate(327.27272727272725 50 50)">
  <rect fill="#000000" height="10" width="14" ry="0" rx="0" y="28" x="43">
    <animate repeatCount="indefinite" begin="0s" dur="0.8403361344537815s" keyTimes="0;1" values="1;0" attributeName="opacity"></animate>
  </rect>
</g><g></g></g><!-- [ldio] generated by https://loading.io --></svg>